<?xml version="1.0" encoding="UTF-8" standalone="no"?>
<!-- Created with Inkscape (http://www.inkscape.org/) -->

<svg
   width="16.585434mm"
   height="16.585434mm"
   viewBox="0 0 16.585434 16.585434"
   version="1.1"
   id="svg33"
   inkscape:version="1.1 (c4e8f9e, 2021-05-24)"
   sodipodi:docname="logo_checklist.svg"
   xmlns:inkscape="http://www.inkscape.org/namespaces/inkscape"
   xmlns:sodipodi="http://sodipodi.sourceforge.net/DTD/sodipodi-0.dtd"
   xmlns="http://www.w3.org/2000/svg"
   xmlns:svg="http://www.w3.org/2000/svg">
  <sodipodi:namedview
     id="namedview35"
     pagecolor="#ffffff"
     bordercolor="#666666"
     borderopacity="1.0"
     inkscape:pageshadow="2"
     inkscape:pageopacity="0.0"
     inkscape:pagecheckerboard="0"
     inkscape:document-units="mm"
     showgrid="false"
     fit-margin-top="0"
     fit-margin-left="0"
     fit-margin-right="0"
     fit-margin-bottom="0"
     inkscape:zoom="0.50244108"
     inkscape:cx="172.15949"
     inkscape:cy="121.40727"
     inkscape:window-width="1440"
     inkscape:window-height="786"
     inkscape:window-x="0"
     inkscape:window-y="25"
     inkscape:window-maximized="1"
     inkscape:current-layer="layer1" />
  <defs
     id="defs30" />
  <g
     inkscape:label="Camada 1"
     inkscape:groupmode="layer"
     id="layer1"
     transform="translate(-59.638138,-116.51048)">
    <circle
       style="fill:#ffb200;fill-opacity:1;stroke-width:0.0192502"
       id="path5608"
       cx="67.930855"
       cy="124.80319"
       r="8.292717" />
    <path
       style="fill:#0b0a06;stroke:none;stroke-width:0.0206683"
       d="m 66.748808,119.11457 c -0.370687,0.07 -0.461545,0.58739 -0.08267,0.72304 0.187731,0.0672 0.423432,0.032 0.62005,0.032 h 1.219432 c 0.219229,0 0.495958,0.0449 0.702413,-0.0399 0.360622,-0.14811 0.254035,-0.64767 -0.10303,-0.71517 -0.132836,-0.0251 -0.278651,-0.01 -0.413368,-0.01 h -0.764728 -0.764729 c -0.134716,0 -0.280532,-0.0154 -0.413367,0.01 m 5.10508,9.43576 v -5.70447 -1.81881 -0.57872 c 0,-0.0993 0.01427,-0.21135 -0.0047,-0.30911 -0.02993,-0.15394 -0.272719,-0.10425 -0.387986,-0.10425 h -1.11609 c -0.108467,0 -0.327697,-0.0416 -0.380235,0.0849 -0.03142,0.0757 -0.01247,0.18597 -0.01247,0.26643 0,0.0951 -0.03249,0.26691 0.03313,0.34479 0.05103,0.0606 0.144327,0.0479 0.214889,0.0479 h 0.496039 c 0.134985,0 0.39586,-0.056 0.429323,0.12411 0.029,0.15615 0.0047,0.33727 0.0047,0.49594 v 0.99208 3.07959 1.81881 c 0,0.29638 0.04809,0.64124 -0.02066,0.93007 -0.130168,-0.0385 -0.278257,-0.0206 -0.413366,-0.0206 h -0.723398 c -0.103672,0 -0.307172,-0.0384 -0.371451,0.0667 -0.06186,0.10117 -0.02125,0.31384 -0.02125,0.42932 v 1.05408 h -3.616959 -0.888738 c -0.09202,0 -0.24804,0.0288 -0.315357,-0.0503 -0.04479,-0.0526 -0.0359,-0.13354 -0.036,-0.19771 v -0.41338 -1.71547 -4.83639 -1.2401 c 0,-0.12248 -0.04644,-0.36885 0.036,-0.4688 0.06236,-0.0756 0.208109,-0.0479 0.294689,-0.0479 h 0.537376 c 0.07373,0 0.178761,0.018 0.244962,-0.0213 0.06674,-0.0395 0.06459,-0.11725 0.06505,-0.18544 9.6e-4,-0.13643 0.0657,-0.47998 -0.103714,-0.5284 -0.129301,-0.037 -0.299795,-0.009 -0.433642,-0.009 h -0.909408 c -0.10328,0 -0.366491,-0.047 -0.433456,0.0503 -0.02947,0.0428 -0.02114,0.10731 -0.02125,0.15637 v 0.37203 1.42612 5.4151 2.27352 0.53738 c 1.52e-4,0.0725 -0.0083,0.16022 0.06506,0.20133 0.119092,0.0667 0.339788,0.026 0.472314,0.026 h 1.178095 c 0.807616,0 1.61116,-0.022 2.418197,-0.0207 0.633484,0.001 1.266597,0.0207 1.901487,0.0207 h 1.281438 c 0.130128,0 0.381558,0.0473 0.489468,-0.0384 0.0874,-0.0694 0.04791,-0.27574 0.04791,-0.37496 v -1.05409 c 0,-0.10301 0.0041,-0.20701 -2.54e-4,-0.30992 m -5.578976,-8.66547 c -0.06587,0.0276 -0.08065,0.0845 -0.0835,0.15003 -0.0062,0.1411 -0.01159,0.29324 8e-4,0.43393 0.0052,0.0586 0.02547,0.10549 0.08267,0.12943 0.0724,0.0303 0.17006,0.0153 0.246801,0.0153 h 0.516709 1.75681 0.558045 c 0.07372,0 0.17876,0.018 0.244961,-0.0212 0.06674,-0.0395 0.06459,-0.11725 0.06505,-0.18544 9.6e-4,-0.13866 0.06587,-0.47469 -0.103714,-0.52553 -0.08305,-0.0249 -0.182606,-0.0118 -0.268296,-0.0118 h -0.496027 -1.632798 -0.599382 c -0.08811,0 -0.205196,-0.0194 -0.288139,0.0153 m -0.340117,0.74997 c -0.04481,0.0355 -0.03302,0.11475 -0.03313,0.16477 -2.33e-4,0.13087 -8.81e-4,0.2618 2.1e-5,0.39267 3.82e-4,0.0617 -0.0055,0.13354 0.06505,0.1564 0.0904,0.0293 0.212801,0.009 0.306965,0.009 h 0.620051 2.108171 0.682055 c 0.06513,0 0.201289,0.0251 0.247442,-0.0331 0.03417,-0.0431 0.02122,-0.12252 0.02125,-0.17355 6.2e-5,-0.13081 0.0024,-0.26189 -7.3e-5,-0.39268 -0.0013,-0.0683 -0.0056,-0.12835 -0.08379,-0.14164 -0.026,-0.004 -0.05508,-0.004 -0.08135,-0.003 -0.267675,0.0145 0.01761,0.42176 -0.248226,0.45204 -0.275219,0.0314 -0.570198,0.002 -0.847298,0.002 h -1.674141 -0.578713 c -0.06971,-2e-5 -0.180744,0.0166 -0.226773,-0.0503 -0.06821,-0.0991 0.01792,-0.25158 -0.03371,-0.35649 -0.03197,-0.065 -0.19205,-0.0676 -0.243762,-0.0267 m -0.620051,1.11609 c -0.03594,0.0285 -0.03226,0.0825 -0.03302,0.12346 -0.0016,0.0858 -0.04028,0.31198 0.06662,0.34476 0.08389,0.0257 0.197506,0.007 0.284644,0.007 h 0.599382 1.942824 0.661387 c 0.06159,0 0.182977,0.0222 0.226774,-0.0331 0.02378,-0.03 0.02049,-0.0757 0.02114,-0.11156 0.0016,-0.0859 0.04152,-0.31317 -0.06496,-0.34477 -0.08505,-0.0253 -0.198168,-0.007 -0.286297,-0.007 h -0.578731 -1.942825 -0.640718 c -0.06878,0 -0.198726,-0.0243 -0.256226,0.0213 m 2.178382,4.33977 -0.702723,-1.38478 -0.496041,0.26456 -1.033417,0.62418 v 0.0207 c 0.946528,0.36724 1.656589,1.16291 2.314854,1.90149 h 0.02067 c 0.206662,-0.28939 0.384885,-0.59964 0.594111,-0.88873 0.339229,-0.46867 0.721697,-0.90372 1.1195,-1.32246 0.397639,-0.4186 0.814188,-0.79714 1.345303,-1.03373 -0.08253,-0.30236 -0.182316,-0.59076 -0.182316,-0.90941 0,-0.36613 0.0921,-0.72973 0.09964,-1.09542 -0.133207,0.0422 -0.255997,0.12988 -0.372029,0.20677 -0.26127,0.1731 -0.501993,0.37798 -0.723393,0.5993 -0.65502,0.65475 -1.16681,1.44122 -1.605744,2.25285 -0.135067,0.24971 -0.23566,0.52009 -0.378417,0.76473 m -2.175507,-3.36836 c -0.03032,0.0245 -0.03282,0.067 -0.0351,0.10286 -0.0055,0.0869 -0.04247,0.33369 0.06415,0.36536 0.08505,0.0253 0.198169,0.007 0.286299,0.007 h 0.599381 1.942825 0.661387 c 0.06159,0 0.182976,0.0222 0.226773,-0.0331 0.02378,-0.0301 0.02049,-0.0757 0.02114,-0.11157 0.0016,-0.0859 0.04152,-0.31317 -0.06496,-0.34477 -0.08505,-0.0253 -0.198169,-0.007 -0.286298,-0.007 h -0.578701 -1.942825 -0.640718 c -0.06773,0 -0.197052,-0.0243 -0.253352,0.0213 m 3.766971,5.4972 v -0.47538 H 66.19079 65.508734 c -0.07106,0 -0.194613,-0.023 -0.220779,0.0651 -0.02177,0.0733 -0.0382,0.33778 0.02656,0.38906 0.05411,0.0429 0.171031,0.0212 0.235558,0.0212 h 0.578713 2.955573 m 1.922156,0.0827 0.06038,-0.0117 c -0.407482,0.4042 -0.58154,0.57754 -1.093794,1.06576 v -0.93008 m -4.658583,0.3106 c -0.03594,0.0285 -0.03226,0.0825 -0.03302,0.12346 -0.0019,0.0987 -0.04115,0.31046 0.08379,0.34476 0.08718,0.024 0.198271,0.007 0.288137,0.007 h 0.599382 1.922156 0.661387 c 0.06159,0 0.182976,0.0222 0.226773,-0.0331 0.02379,-0.0301 0.02049,-0.0757 0.02114,-0.11156 0.0016,-0.0859 0.04152,-0.31317 -0.06496,-0.34477 -0.08505,-0.0252 -0.198168,-0.007 -0.286297,-0.007 h -0.578724 -1.942825 -0.640718 c -0.06878,0 -0.198726,-0.0243 -0.256226,0.0212"
       id="path5159"
       sodipodi:nodetypes="ccsscsscsccccscsscsscscsccscsscsccscccccscsscccssccccccccsscssssscccscsccscccsccsccccssccsccscccsccccccccsccscccsccscccccccccccscccccccssccscccsccsccccsccscccccccccsccscccsccsc" />
  </g>
</svg>
