<?xml version="1.0" encoding="UTF-8" standalone="no"?>
<!-- Created with Inkscape (http://www.inkscape.org/) -->

<svg
   width="9.5839291mm"
   height="18.228104mm"
   viewBox="0 0 9.5839291 18.228104"
   version="1.1"
   id="svg4552"
   inkscape:version="1.1 (c4e8f9e, 2021-05-24)"
   sodipodi:docname="logo.svg"
   xmlns:inkscape="http://www.inkscape.org/namespaces/inkscape"
   xmlns:sodipodi="http://sodipodi.sourceforge.net/DTD/sodipodi-0.dtd"
   xmlns="http://www.w3.org/2000/svg"
   xmlns:svg="http://www.w3.org/2000/svg">
  <sodipodi:namedview
     id="namedview4554"
     pagecolor="#ffffff"
     bordercolor="#666666"
     borderopacity="1.0"
     inkscape:pageshadow="2"
     inkscape:pageopacity="0.0"
     inkscape:pagecheckerboard="0"
     inkscape:document-units="mm"
     showgrid="false"
     fit-margin-top="0"
     fit-margin-left="0"
     fit-margin-right="0"
     fit-margin-bottom="0"
     inkscape:zoom="1.4890886"
     inkscape:cx="40.628879"
     inkscape:cy="112.14914"
     inkscape:window-width="1440"
     inkscape:window-height="786"
     inkscape:window-x="0"
     inkscape:window-y="25"
     inkscape:window-maximized="1"
     inkscape:current-layer="layer1" />
  <defs
     id="defs4549" />
  <g
     inkscape:label="Camada 1"
     inkscape:groupmode="layer"
     id="layer1"
     transform="translate(-63.138886,-89.359352)">
    <g
       id="g4520"
       transform="matrix(0.33567528,0,0,0.33567528,57.544721,67.525803)">
      <path
         style="fill:#1d1d1b;fill-opacity:1;stroke-width:0.0820551"
         d="M 28.636909,82.78533 C 27.279818,73.23367 26.15101,65.33487 26.128429,65.23244 l -0.04105,-0.18624 h 5.011461 c 2.756302,0 5.011462,0.0202 5.011462,0.0449 0,0.0247 -0.952911,6.7386 -2.117583,14.91977 -1.164672,8.18117 -2.281604,16.02954 -2.482076,17.44081 -0.200464,1.41128 -0.373888,2.59617 -0.385399,2.63311 -0.0115,0.0369 -1.131256,-7.74784 -2.488339,-17.29949 z"
         id="path430" />
      <path
         style="fill:#b01817;fill-opacity:1;stroke-width:0.0820551"
         d="M 26.151954,119.11813 C 26.125764,118.99257 24.000467,106.85883 21.429068,92.15426 18.85766,77.44969 16.733903,65.3343 16.709598,65.23117 l -0.04419,-0.18751 2.338374,0.022 2.338374,0.022 3.62302,22.80388 3.623012,22.80387 2.502331,0.0219 c 1.958181,0.0171 2.510814,-8.6e-4 2.541375,-0.0828 0.02147,-0.0576 1.612405,-10.25466 3.535389,-22.66022 1.922992,-12.40556 3.515776,-22.63937 3.539529,-22.7418 l 0.04319,-0.18624 h 2.235409 c 1.736348,0 2.234457,0.0231 2.231171,0.10347 -0.0024,0.0569 -2.134681,12.26484 -4.738561,27.12875 l -4.734315,27.02528 -4.772066,0.0214 -4.772067,0.0213 z"
         id="path309" />
    </g>
  </g>
</svg>
