<?xml version="1.0" encoding="UTF-8" standalone="no"?>
<!-- Created with Inkscape (http://www.inkscape.org/) -->

<svg
   xmlns:dc="http://purl.org/dc/elements/1.1/"
   xmlns:cc="http://creativecommons.org/ns#"
   xmlns:rdf="http://www.w3.org/1999/02/22-rdf-syntax-ns#"
   xmlns:svg="http://www.w3.org/2000/svg"
   xmlns="http://www.w3.org/2000/svg"
   xmlns:sodipodi="http://sodipodi.sourceforge.net/DTD/sodipodi-0.dtd"
   xmlns:inkscape="http://www.inkscape.org/namespaces/inkscape"
   width="18.848841mm"
   height="14.497591mm"
   viewBox="0 0 18.848841 14.497591"
   version="1.1"
   id="svg4807"
   inkscape:version="0.92.1 r15371"
   sodipodi:docname="logo_header.svg">
  <defs
     id="defs4801" />
  <sodipodi:namedview
     id="base"
     pagecolor="#ffffff"
     bordercolor="#666666"
     borderopacity="1.0"
     inkscape:pageopacity="0.0"
     inkscape:pageshadow="2"
     inkscape:zoom="1.4"
     inkscape:cx="-99.234544"
     inkscape:cy="-74.645384"
     inkscape:document-units="mm"
     inkscape:current-layer="layer1"
     showgrid="false"
     fit-margin-top="0"
     fit-margin-left="0"
     fit-margin-right="0"
     fit-margin-bottom="0"
     inkscape:window-width="1920"
     inkscape:window-height="1017"
     inkscape:window-x="1358"
     inkscape:window-y="-8"
     inkscape:window-maximized="1" />
  <metadata
     id="metadata4804">
    <rdf:RDF>
      <cc:Work
         rdf:about="">
        <dc:format>image/svg+xml</dc:format>
        <dc:type
           rdf:resource="http://purl.org/dc/dcmitype/StillImage" />
        <dc:title></dc:title>
      </cc:Work>
    </rdf:RDF>
  </metadata>
  <g
     inkscape:label="Camada 1"
     inkscape:groupmode="layer"
     id="layer1"
     transform="translate(-105.48034,-149.90001)">
    <g
       id="g5614"
       transform="matrix(1.2255803,0,0,1.2255803,5.0057368,68.660347)">
      <path
         inkscape:export-filename="C:\Users\u498\path6042.png"
         inkscape:export-ydpi="88.045372"
         inkscape:export-xdpi="88.045372"
         sodipodi:nodetypes="cccsccccccsccccccsccccssccssccsccccsccsccccsscccccccssccccscscc"
         inkscape:connector-curvature="0"
         id="path6022-5-7"
         d="m 92.065004,77.71085 c -0.03477,-0.0374 -0.135249,-0.196164 -0.223261,-0.352968 -0.08801,-0.156805 -0.189952,-0.312173 -0.226526,-0.345276 -0.05091,-0.04607 -0.160738,-0.06682 -0.468358,-0.08867 -0.221023,-0.0157 -0.554569,-0.06011 -0.741216,-0.09885 l -0.339358,-0.07037 -0.223103,0.214048 c -0.122707,0.117722 -0.294347,0.280696 -0.381422,0.362159 l -0.158318,0.14811 -0.540497,-0.276222 c -0.297273,-0.151929 -0.614993,-0.340195 -0.706044,-0.418377 -0.163719,-0.140584 -0.165316,-0.143929 -0.14437,-0.30183 0.01165,-0.08781 0.05898,-0.288466 0.105178,-0.445918 0.0462,-0.157435 0.08432,-0.312859 0.08471,-0.345386 0.0011,-0.09386 -0.821847,-1.222564 -0.918104,-1.259162 -0.04606,-0.01751 -0.289629,-0.0411 -0.541269,-0.05254 l -0.457527,-0.02067 -0.07017,-0.156465 c -0.0724,-0.161421 -0.536488,-1.921305 -0.521518,-1.938993 1.422077,-2.013773 1.532021,-2.688996 2.714331,-3.812133 0.0841,-0.05704 0.275628,-0.170603 0.425618,-0.252405 0.14999,-0.08179 0.314893,-0.190578 0.366452,-0.241739 0.09239,-0.09168 0.09374,-0.09923 0.09374,-0.522853 0,-0.555411 0.03022,-0.634444 0.277956,-0.726944 0.324784,-0.121264 0.926597,-0.257052 1.152934,-0.260137 l 0.220747,-0.0032 0.205665,0.386709 c 0.281573,0.529432 0.288922,0.534671 0.788675,0.562078 0.222722,0.01223 0.535336,0.05207 0.6947,0.08852 l 0.289752,0.06635 0.15187,-0.17685 c 0.08353,-0.09726 0.240313,-0.267056 0.348413,-0.377314 0.179852,-0.183438 0.206037,-0.198696 0.308326,-0.179596 0.161638,0.03021 0.968422,0.439401 1.168526,0.592703 0.150932,0.115631 0.171642,0.147006 0.180915,0.274068 0.0068,0.09315 -0.03318,0.286952 -0.113959,0.552445 l -0.124431,0.408957 0.19918,0.226134 c 0.10955,0.124372 0.322282,0.389132 0.472739,0.588356 l 0.273557,0.362222 0.374124,-7.94e-4 c 0.205769,-4.76e-4 0.453027,-0.01105 0.549461,-0.02351 l 0.175335,-0.02264 0.0341,0.1258 c 0.109841,0.405115 0.382216,1.47642 0.382216,1.50333 0,0.01751 -0.167083,0.126739 -0.371295,0.24263 -0.579266,0.328756 -0.560545,0.302407 -0.629913,0.886542 -0.0322,0.271197 -0.06565,0.608134 -0.07432,0.748742 l -0.01578,0.255671 0.373448,0.336401 0.373449,0.336409 -0.206987,0.41354 c -0.224658,0.448845 -0.453041,0.819571 -0.567028,0.92045 -0.0826,0.07313 -0.229734,0.06374 -0.785027,-0.04954 l -0.318336,-0.06501 -0.380479,0.296734 c -0.209263,0.163203 -0.484023,0.395759 -0.610578,0.516778 l -0.230097,0.220027 v 0.422061 c 0,0.398584 -0.0045,0.426566 -0.08079,0.502862 -0.09399,0.09398 -0.489987,0.226143 -0.971987,0.324355 -0.431278,0.08785 -0.562995,0.08813 -0.644056,7.93e-4 z"
         style="opacity:1;vector-effect:none;fill:#ffffff;fill-opacity:1;stroke:#014871;stroke-width:0.31200004;stroke-linecap:butt;stroke-linejoin:miter;stroke-miterlimit:4;stroke-dasharray:none;stroke-dashoffset:0;stroke-opacity:1" />
      <circle
         inkscape:export-filename="C:\Users\u498\path6042.png"
         inkscape:export-ydpi="88.045372"
         inkscape:export-xdpi="88.045372"
         r="0.68697083"
         cy="70.211403"
         cx="85.424889"
         id="path5987-0-40"
         style="opacity:1;vector-effect:none;fill:#ffffff;fill-opacity:1;stroke:#014871;stroke-width:0.31200004;stroke-linecap:butt;stroke-linejoin:miter;stroke-miterlimit:4;stroke-dasharray:none;stroke-dashoffset:0;stroke-opacity:1" />
      <ellipse
         inkscape:export-filename="C:\Users\u498\path6042.png"
         inkscape:export-ydpi="88.045372"
         inkscape:export-xdpi="88.045372"
         ry="3.6071272"
         rx="3.4953296"
         cy="72.16436"
         cx="91.394791"
         id="path6036-2-7"
         style="opacity:1;vector-effect:none;fill:#014871;fill-opacity:1;stroke:#014871;stroke-width:0.31200004;stroke-linecap:butt;stroke-linejoin:miter;stroke-miterlimit:4;stroke-dasharray:none;stroke-dashoffset:0;stroke-opacity:1" />
      <path
         inkscape:export-filename="C:\Users\u498\path6042.png"
         inkscape:export-ydpi="88.045372"
         inkscape:export-xdpi="88.045372"
         sodipodi:nodetypes="ccscccscscccsccccccccccscsccccsccccccccccccccsccsccc"
         inkscape:connector-curvature="0"
         id="path5991-8-3"
         d="m 84.719579,73.373442 c -0.226261,-0.04773 -0.466441,-0.127402 -0.636042,-0.211019 -0.241709,-0.119173 -0.22288,-0.0684 -0.170305,-0.45895 l 0.0452,-0.335786 -0.03971,-0.04899 c -0.02184,-0.0269 -0.115802,-0.132474 -0.208795,-0.234528 -0.09299,-0.102046 -0.225714,-0.256579 -0.294939,-0.343407 -0.06922,-0.08683 -0.142703,-0.168898 -0.163285,-0.182365 -0.06393,-0.04181 -0.165723,-0.04678 -0.389612,-0.01893 -0.357616,0.04442 -0.409286,0.03361 -0.473607,-0.09924 -0.04561,-0.09421 -0.217789,-0.77536 -0.23264,-0.920315 l -0.01093,-0.106764 0.06597,-0.05475 c 0.03629,-0.03014 0.170135,-0.107742 0.297449,-0.172496 0.285254,-0.145097 0.327697,-0.18582 0.381696,-0.366261 0.05918,-0.197757 0.129324,-0.526434 0.14031,-0.657465 0.01145,-0.136616 -0.009,-0.205472 -0.148188,-0.498719 -0.125349,-0.264105 -0.142284,-0.323242 -0.112617,-0.393266 0.07148,-0.168693 0.59796,-0.647035 0.820515,-0.745484 l 0.07748,-0.03424 0.07166,0.03471 c 0.03941,0.01909 0.163697,0.119055 0.27619,0.222142 0.112491,0.103087 0.216036,0.187612 0.230096,0.18784 0.01406,1.98e-4 0.277718,-0.06722 0.585901,-0.149838 l 0.560332,-0.150249 0.08054,-0.214458 c 0.133211,-0.354696 0.190471,-0.431031 0.318358,-0.424412 0.09528,0.0047 0.545138,0.116515 0.790473,0.196061 0.424213,0.137547 0.423268,0.135796 0.355882,0.657986 -0.01958,0.1517 -0.033,0.278005 -0.02983,0.280679 0.0032,0.0024 0.06329,0.04513 0.133597,0.0943 0.157904,0.110456 0.333084,0.279544 0.44457,0.429082 0.122932,0.164907 0.150332,0.173254 0.543397,0.165546 l 0.314716,-0.0063 0.08115,0.20604 c 0.09672,0.245581 0.167533,0.512116 0.21888,0.823847 0.03674,0.223121 0.03689,0.229408 0.0058,0.252571 -0.04094,0.03045 -0.503705,0.262014 -0.597748,0.299061 -0.06348,0.02501 -0.07835,0.04229 -0.131781,0.153389 -0.134889,0.280443 -0.241944,0.691995 -0.226674,0.871394 0.01167,0.137105 0.04468,0.230118 0.175908,0.495753 0.06021,0.121872 0.109414,0.235381 0.10935,0.252256 -2.03e-4,0.05775 -0.04894,0.122833 -0.207695,0.277484 -0.193874,0.188866 -0.329531,0.304742 -0.54514,0.465656 l -0.16469,0.122913 -0.24582,-0.171091 c -0.135192,-0.09407 -0.273674,-0.182705 -0.307731,-0.196937 -0.09768,-0.04079 -0.25998,-0.03085 -0.577925,0.0355 -0.466309,0.09732 -0.517189,0.124956 -0.71824,0.390165 -0.150063,0.197947 -0.265273,0.31566 -0.307569,0.314248 -0.01973,-6.62e-4 -0.102476,-0.01523 -0.183873,-0.03242 z"
         style="opacity:1;vector-effect:none;fill:#ffffff;fill-opacity:1;stroke:#014871;stroke-width:0.31200004;stroke-linecap:butt;stroke-linejoin:miter;stroke-miterlimit:4;stroke-dasharray:none;stroke-dashoffset:0;stroke-opacity:1" />
      <circle
         inkscape:export-filename="C:\Users\u498\path6042.png"
         inkscape:export-ydpi="88.045372"
         inkscape:export-xdpi="88.045372"
         r="1.9414773"
         cy="70.200912"
         cx="85.406708"
         id="path5989-8-4-57"
         style="opacity:1;vector-effect:none;fill:#014871;fill-opacity:1;stroke:#014871;stroke-width:0.31200004;stroke-linecap:butt;stroke-linejoin:miter;stroke-miterlimit:4;stroke-dasharray:none;stroke-dashoffset:0;stroke-opacity:1" />
      <circle
         inkscape:export-filename="C:\Users\u498\path6042.png"
         inkscape:export-ydpi="88.045372"
         inkscape:export-xdpi="88.045372"
         r="0.71127808"
         cy="70.200912"
         cx="85.406708"
         id="path5989-7-2"
         style="opacity:1;vector-effect:none;fill:#ffffff;fill-opacity:1;stroke:#014871;stroke-width:0.31200004;stroke-linecap:butt;stroke-linejoin:miter;stroke-miterlimit:4;stroke-dasharray:none;stroke-dashoffset:0;stroke-opacity:1" />
      <path
         inkscape:export-filename="C:\Users\u498\path6042.png"
         inkscape:export-ydpi="88.045372"
         inkscape:export-xdpi="88.045372"
         inkscape:connector-curvature="0"
         id="path6014-5-7"
         d="m 91.485261,75.288049 c -0.03166,-0.05451 -0.105486,-0.200124 -0.164061,-0.32355 -0.05858,-0.123425 -0.119724,-0.234922 -0.135875,-0.247766 -0.01615,-0.01286 -0.110566,-0.0411 -0.209807,-0.06288 -0.09924,-0.02169 -0.319244,-0.08606 -0.488896,-0.142967 -0.169653,-0.05688 -0.324641,-0.102946 -0.344421,-0.10233 -0.01977,7.67e-4 -0.172172,0.09408 -0.338655,0.207681 l -0.302693,0.206562 -0.128858,-0.111695 c -0.338091,-0.293066 -0.723702,-0.752568 -0.723702,-0.862385 0,-0.02106 0.06439,-0.121777 0.143088,-0.223823 0.181723,-0.235632 0.229004,-0.338704 0.229578,-0.500455 5.03e-4,-0.133374 -0.0747,-0.448135 -0.163833,-0.685976 -0.06071,-0.161988 -0.185933,-0.297003 -0.373512,-0.402685 -0.183713,-0.103514 -0.244064,-0.189206 -0.244064,-0.307353 0,-0.235349 0.127422,-0.662475 0.281923,-0.945016 l 0.09042,-0.165349 0.345045,0.04647 0.379509,0.07518 0.05682,-0.07313 c 0.0665,-0.08564 0.281761,-0.298327 0.490523,-0.4847 l 0.147427,-0.131615 -0.01538,-0.218284 c -0.0084,-0.120065 -0.0215,-0.286565 -0.02898,-0.370009 -0.01158,-0.128916 -0.0072,-0.157561 0.02955,-0.190601 0.07635,-0.06879 0.271432,-0.154233 0.46306,-0.202846 0.230935,-0.05862 0.8114,-0.145033 0.830533,-0.123701 0.0078,0.0086 0.05887,0.139369 0.113609,0.290509 0.156958,0.433398 0.196641,0.471518 0.560968,0.538844 0.109335,0.0202 0.266634,0.0643 0.349557,0.09799 0.199059,0.08089 0.287768,0.06919 0.533749,-0.07037 0.268161,-0.152158 0.364273,-0.183872 0.460763,-0.152024 0.11235,0.03708 0.616192,0.590534 0.71867,0.789443 0.05585,0.108404 0.039,0.168796 -0.132485,0.475044 -0.13783,0.246133 -0.146005,0.26924 -0.142104,0.401723 0.0045,0.152639 0.12022,0.590502 0.194613,0.736324 0.047,0.09214 0.179464,0.194475 0.448571,0.346578 0.07378,0.04173 0.134131,0.08438 0.134131,0.09486 0,0.03826 -0.0949,0.478957 -0.127914,0.593981 -0.0187,0.06508 -0.07854,0.230828 -0.133004,0.368296 -0.08562,0.216092 -0.105464,0.248627 -0.146498,0.240201 -0.02611,-0.0055 -0.19283,-0.02201 -0.370504,-0.037 l -0.323042,-0.02722 -0.143501,0.136798 c -0.440219,0.41967 -0.582216,0.564026 -0.616749,0.626989 -0.02824,0.05152 -0.04168,0.15585 -0.05083,0.395128 l -0.01245,0.325142 -0.256598,0.07779 c -0.317777,0.09637 -0.706017,0.193245 -0.774639,0.193284 -0.03603,1.6e-5 -0.0688,-0.02982 -0.109065,-0.09911 z m 0.487146,-1.426041 c 0.279081,-0.09535 0.486947,-0.228264 0.712099,-0.455321 0.394195,-0.397526 0.574537,-0.931471 0.513588,-1.5206 -0.01832,-0.176985 -0.03945,-0.251513 -0.11743,-0.414022 -0.127846,-0.266447 -0.282769,-0.494838 -0.414024,-0.610374 -0.153978,-0.135536 -0.485089,-0.31585 -0.736004,-0.4008 -0.186586,-0.06319 -0.247029,-0.07274 -0.459762,-0.07274 -0.78871,2.4e-5 -1.495679,0.48104 -1.741685,1.185043 -0.06008,0.171936 -0.06525,0.214159 -0.06568,0.536525 -5.03e-4,0.400847 0.0279,0.540019 0.171634,0.839774 0.230586,0.480875 0.625897,0.80687 1.145869,0.944938 0.266138,0.07069 0.734491,0.05538 0.991403,-0.03243 z"
         style="opacity:1;vector-effect:none;fill:#ffffff;fill-opacity:1;stroke:#014871;stroke-width:0.31200004;stroke-linecap:butt;stroke-linejoin:miter;stroke-miterlimit:4;stroke-dasharray:none;stroke-dashoffset:0;stroke-opacity:1"
         sodipodi:nodetypes="ccccsccccsccccsccccccccccccccccccccccsccccccccccccccccccccscccc" />
      <circle
         inkscape:export-filename="C:\Users\u498\path6042.png"
         inkscape:export-ydpi="88.045372"
         inkscape:export-xdpi="88.045372"
         r="1.91273"
         cy="72.16436"
         cx="91.394791"
         id="path6040-4-3"
         style="opacity:1;vector-effect:none;fill:#ffffff;fill-opacity:1;stroke:#014871;stroke-width:0.31200004;stroke-linecap:butt;stroke-linejoin:miter;stroke-miterlimit:4;stroke-dasharray:none;stroke-dashoffset:0;stroke-opacity:1" />
      <path
         inkscape:export-filename="C:\Users\u498\path6042.png"
         inkscape:export-ydpi="88.045372"
         inkscape:export-xdpi="88.045372"
         sodipodi:nodetypes="ccccccc"
         inkscape:connector-curvature="0"
         id="path6042-8-5"
         d="m 89.058651,75.651793 0.216939,0.638768 0.923271,-0.379468 0.528831,0.750162 0.620863,-0.346585 -0.891858,-1.193169 z"
         style="fill:#ffffff;fill-opacity:1;stroke:#014871;stroke-width:0.31200004;stroke-linecap:butt;stroke-linejoin:miter;stroke-miterlimit:4;stroke-dasharray:none;stroke-opacity:1" />
      <rect
         transform="rotate(21.5024)"
         ry="0.11993326"
         y="33.292442"
         x="107.66348"
         height="0.93178922"
         width="0.4750298"
         id="rect5602"
         style="opacity:1;vector-effect:none;fill:#014871;fill-opacity:1;stroke:none;stroke-width:0.51873708;stroke-linecap:butt;stroke-linejoin:miter;stroke-miterlimit:4;stroke-dasharray:none;stroke-dashoffset:0;stroke-opacity:1" />
    </g>
  </g>
</svg>
